<mxfile host="app.diagrams.net" modified="2023-12-21T17:29:17.693Z" agent="Mozilla/5.0 (Windows NT 10.0; Win64; x64) AppleWebKit/537.36 (KHTML, like Gecko) Chrome/120.0.0.0 Safari/537.36" version="22.1.11" etag="FydNuM6eGlzrbKruANNG" type="github">
  <diagram name="Page-1" id="F1Lz7anBX3rBOHx23bjp">
    <mxGraphModel>
      <root>
        <mxCell id="0" />
        <mxCell id="1" parent="0" />
      </root>
    </mxGraphModel>
  </diagram>
</mxfile>
